<svg width="64" height="64" viewBox="0 0 64 64" fill="none" xmlns="http://www.w3.org/2000/svg" role="img" aria-label="Cute cat mascot">
  <ellipse cx="32" cy="52" rx="17" ry="8" fill="#F0E1EC" opacity="0.6" />
  <path d="M18 20 L24 8 L28 22 Z" fill="#FFFFFF" stroke="#3E3552" stroke-width="1.6" stroke-linejoin="round" />
  <path d="M46 20 L40 8 L36 22 Z" fill="#FFFFFF" stroke="#3E3552" stroke-width="1.6" stroke-linejoin="round" />
  <path d="M20.5 18 L24 11 L26.5 19 Z" fill="#F7C6DA" />
  <path d="M43.5 18 L40 11 L37.5 19 Z" fill="#F7C6DA" />
  <circle cx="32" cy="34" r="19" fill="#FFFFFF" stroke="#3E3552" stroke-width="1.6" />
  <circle cx="25" cy="33" r="2.1" fill="#3E3552" />
  <circle cx="39" cy="33" r="2.1" fill="#3E3552" />
  <path d="M29.5 40 Q32 42.5 34.5 40" stroke="#3E3552" stroke-width="1.6" stroke-linecap="round" fill="none" />
  <circle cx="20" cy="38" r="2.6" fill="#F7C6DA" opacity="0.85" />
  <circle cx="44" cy="38" r="2.6" fill="#F7C6DA" opacity="0.85" />
  <path d="M13 33 L20 34.5 M13 37 L20 36" stroke="#3E3552" stroke-width="1.1" stroke-linecap="round" />
  <path d="M51 33 L44 34.5 M51 37 L44 36" stroke="#3E3552" stroke-width="1.1" stroke-linecap="round" />
</svg>